<?xml version="1.0" encoding="utf-8"?>
<!-- Generator: Adobe Illustrator 23.0.1, SVG Export Plug-In . SVG Version: 6.00 Build 0)  -->
<svg version="1.1" xmlns="http://www.w3.org/2000/svg" xmlns:xlink="http://www.w3.org/1999/xlink" x="0px" y="0px"
	 viewBox="0 0 985.77 1000" style="enable-background:new 0 0 985.77 1000;" xml:space="preserve">
<g id="Layer_1">
	<g>
		<ellipse transform="matrix(0.5956 -0.8033 0.8033 0.5956 -91.8517 341.9099)" cx="293.65" cy="262.18" rx="15.96" ry="13.96"/>
		<ellipse transform="matrix(0.3072 -0.9517 0.9517 0.3072 121.2376 948.3408)" cx="711.92" cy="390.91" rx="10.98" ry="8.42"/>
		<path d="M776.86,197.01c-3.38-0.81-6.87,0.81-8.43,3.91c-1.16,2.3-2.36,4.71-3.61,7.22c-24.73,49.77-66.04,132.95-220.62,132.95
			c-0.59,0-1.19,0-1.78,0c-0.01,0-0.02,0-0.03,0c-40.86,0-69.56-10.29-87.74-31.46c-16.25-18.93-23-44.62-29.52-69.48
			c-11.48-43.76-23.36-89.01-87.71-90.43c-0.05,0-0.11,0-0.17,0c-38.44,0-73.02,15.45-100.01,44.67
			c-16.65,18.03-25.56,35.97-28.39,42.25l-75.69,47.92c-2.63,1.67-3.96,4.79-3.33,7.85c0.63,3.05,3.08,5.4,6.16,5.89
			c0.57,0.09,53.54,8.58,77.01,13.17c2.2,10.56,4.24,22.92,6.38,35.9c8.55,51.84,20.27,122.83,58.25,180.09
			c20.92,31.54,48.04,56.06,80.61,72.88c12.36,6.39,25.65,11.73,39.81,16.03c-0.19,0.48-0.34,0.98-0.43,1.51l-32.1,182.37
			l-61.26,31.46c-3.68,1.89-5.14,6.41-3.25,10.1c1.89,3.69,6.42,5.14,10.1,3.25l51.15-26.26l-8.02,45.58
			c-0.72,4.08,2.01,7.97,6.09,8.69c0.44,0.08,0.88,0.11,1.31,0.11c3.57,0,6.74-2.56,7.38-6.2l7.82-44.44l25.56,30.96
			c1.48,1.8,3.63,2.72,5.79,2.72c1.68,0,3.37-0.56,4.77-1.72c3.19-2.64,3.65-7.37,1.01-10.56l-33.71-40.82l32.15-182.64
			c0.01-0.06,0.01-0.11,0.02-0.17c25.18,6.17,52.88,9.28,82.86,9.28c16.09,0,38.01-1.6,62.64-7.75l2.19,173.77l-53.61,47.49
			c-3.1,2.75-3.39,7.49-0.64,10.59c1.48,1.67,3.54,2.53,5.62,2.53c1.77,0,3.54-0.62,4.97-1.89l43.92-38.9l0.65,51.88
			c0.05,4.11,3.4,7.41,7.5,7.41c0.03,0,0.06,0,0.1,0c4.14-0.05,7.46-3.45,7.4-7.59l-0.66-52.46l43.11,27.29
			c1.25,0.79,2.63,1.16,4,1.16c2.48,0,4.92-1.23,6.34-3.49c2.22-3.5,1.17-8.13-2.33-10.35l-51.36-32.51l-2.25-179.14
			c34.09-10.76,71.91-30.64,106.11-66.66c68.78-72.46,103.66-189.1,103.66-346.67C782.62,200.84,780.24,197.82,776.86,197.01z
			 M668.09,540.65c-61.08,64.35-134.49,73.96-172.82,73.96c-216.61,0-243.38-162.28-261.1-269.67c-2.51-15.19-4.87-29.54-7.57-41.48
			c-0.65-2.86-2.89-5.08-5.76-5.69c-13.23-2.81-43.02-7.82-62.96-11.1l60.95-38.59c1.33-0.84,2.37-2.09,2.95-3.55
			c0.08-0.2,8.34-20.46,26.83-40.34c24.34-26.17,54.13-39.45,88.55-39.47c52.98,1.2,62.01,35.64,73.45,79.24
			c6.95,26.5,14.14,53.89,32.65,75.44c21.2,24.68,53.62,36.69,99.09,36.69c0.61,0,1.21,0,1.81,0c142.1,0,195.3-69.05,222.94-119.62
			C762.7,373.78,729.44,476.01,668.09,540.65z"/>
		<path d="M623.15,398.89c-3-1.49-6.64-0.79-8.89,1.69c-0.12,0.13-12.29,13.44-35.18,26.54c-21.02,12.03-55.7,26.38-101.54,26.38
			c-4.14,0-7.5,3.36-7.5,7.5s3.36,7.5,7.5,7.5c49.44,0,86.88-15.61,109.58-28.7c7.32-4.22,13.6-8.44,18.85-12.31
			c-4.2,12.32-10.73,28.14-20.41,43.9c-26.95,43.88-64.33,66.13-111.1,66.13c-4.14,0-7.5,3.36-7.5,7.5s3.36,7.5,7.5,7.5
			c51.6,0,94.43-25.34,123.88-73.28c21.88-35.63,28.59-70.78,28.86-72.26C627.81,403.68,626.15,400.38,623.15,398.89z"/>
	</g>
</g>
<g id="Layer_2">
</g>
</svg>
