<?xml version="1.0" encoding="utf-8" ?>
<svg width="150" height="40" xmlns="http://www.w3.org/2000/svg">
  <g fill="none" fill-rule="evenodd">
    <path fill="#000" d="M0 0h150v40H0z"/>
    <path d="M21.524 15.818h.098L24.874 27h1.66l3.838-14.092h-1.836l-2.823 11.504h-.078l-3.173-11.504h-1.778L17.51 24.412h-.078L14.61 12.908h-1.836L16.612 27h1.66l3.252-11.182zm17.713-3.144c3.994 0 6.494 2.812 6.494 7.285 0 4.473-2.5 7.275-6.494 7.275-3.994 0-6.494-2.802-6.494-7.275 0-4.473 2.5-7.285 6.494-7.285zm0 1.62c-2.88 0-4.687 2.188-4.687 5.665 0 3.467 1.806 5.654 4.687 5.654 2.881 0 4.688-2.187 4.688-5.654 0-3.477-1.807-5.664-4.688-5.664zm16.23-1.62c3.993 0 6.493 2.812 6.493 7.285 0 4.473-2.5 7.275-6.494 7.275-3.994 0-6.494-2.802-6.494-7.275 0-4.473 2.5-7.285 6.494-7.285zm0 1.62c-2.882 0-4.688 2.188-4.688 5.665 0 3.467 1.806 5.654 4.687 5.654 2.881 0 4.688-2.187 4.688-5.654 0-3.477-1.807-5.664-4.688-5.664zm10.28-1.386h4.737c4.18 0 6.65 2.608 6.65 7.041 0 4.444-2.46 7.051-6.65 7.051h-4.736V12.908zm1.759 1.582v10.928h2.861c3.193 0 4.97-1.953 4.97-5.45 0-3.525-1.767-5.478-4.97-5.478h-2.861zm20.74 1.328h.098L91.596 27h1.66l3.838-14.092h-1.836l-2.822 11.504h-.078l-3.174-11.504h-1.778l-3.173 11.504h-.079l-2.822-11.504h-1.836L83.334 27h1.66l3.252-11.182zm20.985 9.6h-6.973v-4.844h6.612v-1.562h-6.612V14.49h6.973v-1.582h-8.73V27h8.73v-1.582zm5.672-10.947v5.4h3.37c1.806 0 2.831-.976 2.831-2.705 0-1.69-1.093-2.695-2.91-2.695h-3.29zm0 6.953V27h-1.757V12.908h5.283c2.715 0 4.492 1.66 4.492 4.2 0 1.962-1.065 3.486-2.832 4.042L123.35 27h-2.061l-3.018-5.576h-3.369zM128.486 27v-4.922l1.523-1.68L135.292 27h2.246l-6.308-7.852 5.79-6.24h-2.216l-6.22 6.875h-.098v-6.875h-1.758V27h1.758z" fill="#FFF"/>
  </g>
</svg>