<svg id="Capa_1" enable-background="new 0 0 512 512" height="512" viewBox="0 0 512 512" width="512" xmlns="http://www.w3.org/2000/svg"><g><path d="m256 151h-181c-8.284 0-15 6.716-15 15 0 57.809 47.884 105 106 105 57.897 0 105-47.103 105-105 0-8.284-6.716-15-15-15zm-90 90c-36.702 0-67.411-25.809-74.473-60.01h147.966c-6.969 34.201-37.274 60.01-73.493 60.01z"/><path d="m106 121h30c8.284 0 15-6.716 15-15s-6.716-15-15-15h-30c-8.284 0-15 6.716-15 15s6.716 15 15 15z"/><path d="m196 121h30c8.284 0 15-6.716 15-15s-6.716-15-15-15h-30c-8.284 0-15 6.716-15 15s6.716 15 15 15z"/><path d="m346 181c-5.268 0-10.528.265-15.757.761.494-5.189.757-10.445.757-15.761 0-91.533-74.019-166-165-166-91.22 0-166 74.797-166 166 0 90.981 74.467 165 166 165 5.316 0 10.572-.263 15.761-.757-.496 5.229-.761 10.489-.761 15.757 0 91.533 74.019 166 165 166 91.22 0 166-74.797 166-166 0-90.981-74.467-165-166-165zm-316-15c0-74.991 61.009-136 136-136 74.439 0 135 61.009 135 136 0 74.439-60.561 135-135 135-74.991 0-136-60.561-136-135zm316 316c-74.439 0-135-61.009-135-136 0-7.308.597-14.593 1.755-21.758 53.45-15.82 95.667-58.037 111.487-111.487 7.165-1.158 14.45-1.755 21.758-1.755 74.991 0 136 60.561 136 135 0 74.991-61.009 136-136 136z"/><path d="m346 361c-29.772 0-58.275 12.753-78.201 34.99-5.528 6.17-5.008 15.653 1.161 21.182 6.169 5.528 15.653 5.008 21.182-1.161 14.242-15.895 34.602-25.011 55.858-25.011s41.616 9.116 55.858 25.01c5.506 6.143 14.987 6.711 21.182 1.161 6.169-5.529 6.689-15.012 1.161-21.182-19.926-22.236-48.429-34.989-78.201-34.989z"/><path d="m286 331h30c8.284 0 15-6.716 15-15s-6.716-15-15-15h-30c-8.284 0-15 6.716-15 15s6.716 15 15 15z"/><path d="m376 331h30c8.284 0 15-6.716 15-15s-6.716-15-15-15h-30c-8.284 0-15 6.716-15 15s6.716 15 15 15z"/></g></svg>